{
	"asset":{
		"generator":"Khronos glTF Blender I/O v4.1.63",
		"version":"2.0"
	},
	"scene":0,
	"scenes":[
		{
			"name":"Scene",
			"nodes":[
				4
			]
		}
	],
	"nodes":[
		{
			"mesh":0,
			"name":"DNA_Material_0"
		},
		{
			"children":[
				0
			],
			"name":"DNA",
			"rotation":[
				-0.70710688829422,
				0,
				0,
				0.7071066498756409
			],
			"scale":[
				100,
				99.99998474121094,
				99.99998474121094
			],
			"translation":[
				-3.7445599446073174e-05,
				1899.999267578125,
				3.2796958748804173e-06
			]
		},
		{
			"children":[
				1
			],
			"name":"RootNode",
			"translation":[
				6.103515625e-05,
				3.051758176297881e-05,
				0
			]
		},
		{
			"children":[
				2
			],
			"name":"e1e9ac42d9fe4b6faef2649e5f42c78b.fbx",
			"rotation":[
				0.70710688829422,
				0,
				0,
				0.7071066498756409
			]
		},
		{
			"children":[
				3
			],
			"name":"Sketchfab_model",
			"rotation":[
				-0.5982405543327332,
				-0.3769724667072296,
				0.3769724667072296,
				0.5982405543327332
			],
			"translation":[
				1713.9530029296875,
				1080.0220947265625,
				3.6654342693509534e-05
			]
		}
	],
	"materials":[
		{
			"doubleSided":true,
			"name":"Material.001",
			"normalTexture":{
				"index":0
			},
			"pbrMetallicRoughness":{
				"baseColorTexture":{
					"index":1
				},
				"metallicRoughnessTexture":{
					"index":2
				}
			}
		}
	],
	"meshes":[
		{
			"name":"DNA_Material_0",
			"primitives":[
				{
					"attributes":{
						"POSITION":0,
						"NORMAL":1,
						"TEXCOORD_0":2,
						"TEXCOORD_1":3,
						"TEXCOORD_2":4
					},
					"indices":5,
					"material":0
				}
			]
		}
	],
	"textures":[
		{
			"sampler":0,
			"source":0
		},
		{
			"sampler":0,
			"source":1
		},
		{
			"sampler":0,
			"source":2
		}
	],
	"images":[
		{
			"mimeType":"image/png",
			"name":"Material_normal",
			"uri":"textures/Material_normal.png"
		},
		{
			"mimeType":"image/png",
			"name":"Material_baseColor1",
			"uri":"textures/Material_baseColor1.png"
		},
		{
			"mimeType":"image/png",
			"name":"Material_metallicRoughness",
			"uri":"textures/Material_metallicRoughness.png"
		}
	],
	"accessors":[
		{
			"bufferView":0,
			"componentType":5126,
			"count":54216,
			"max":[
				3.0961177349090576,
				3.094499349594116,
				20.000009536743164
			],
			"min":[
				-3.0961172580718994,
				-3.094499349594116,
				-19.9999942779541
			],
			"type":"VEC3"
		},
		{
			"bufferView":1,
			"componentType":5126,
			"count":54216,
			"type":"VEC3"
		},
		{
			"bufferView":2,
			"componentType":5126,
			"count":54216,
			"type":"VEC2"
		},
		{
			"bufferView":3,
			"componentType":5126,
			"count":54216,
			"type":"VEC2"
		},
		{
			"bufferView":4,
			"componentType":5126,
			"count":54216,
			"type":"VEC2"
		},
		{
			"bufferView":5,
			"componentType":5123,
			"count":256512,
			"type":"SCALAR"
		}
	],
	"bufferViews":[
		{
			"buffer":0,
			"byteLength":650592,
			"byteOffset":0,
			"target":34962
		},
		{
			"buffer":0,
			"byteLength":650592,
			"byteOffset":650592,
			"target":34962
		},
		{
			"buffer":0,
			"byteLength":433728,
			"byteOffset":1301184,
			"target":34962
		},
		{
			"buffer":0,
			"byteLength":433728,
			"byteOffset":1734912,
			"target":34962
		},
		{
			"buffer":0,
			"byteLength":433728,
			"byteOffset":2168640,
			"target":34962
		},
		{
			"buffer":0,
			"byteLength":513024,
			"byteOffset":2602368,
			"target":34963
		}
	],
	"samplers":[
		{
			"magFilter":9729,
			"minFilter":9987
		}
	],
	"buffers":[
		{
			"byteLength":3115392,
			"uri":"dna1.bin"
		}
	]
}
